<svg width="1056" height="206" viewBox="0 0 1056 206" fill="none" xmlns="http://www.w3.org/2000/svg">
<g clip-path="url(#clip0_138_31)">
<path d="M689.583 85.2521C685.603 85.2521 682.414 84.8551 680.017 84.0614C677.62 83.245 675.879 81.8163 674.793 79.7752C673.73 77.7114 673.199 74.8199 673.199 71.1005V35.3476H679.712V46.0632H703.761V51.4381H679.712V71.1005C679.712 73.6406 679.938 75.5342 680.39 76.7816C680.865 78.0289 681.803 78.8454 683.205 79.2309C684.63 79.6164 686.756 79.8092 689.583 79.8092C692.093 79.8092 694.06 79.7299 695.485 79.5709C696.932 79.412 697.995 78.9926 698.673 78.3123C699.352 77.6093 699.781 76.4639 699.962 74.8764C700.143 73.2889 700.234 71.0551 700.234 68.1749H706C706 71.9395 705.762 74.9558 705.288 77.2237C704.835 79.4916 704.01 81.2038 702.811 82.3604C701.636 83.517 699.973 84.2882 697.825 84.6737C695.699 85.0592 692.952 85.2521 689.583 85.2521Z" fill="#F5F5F5"/>
<path d="M643.349 45.3153C638.984 45.3153 635.287 45.5412 632.257 45.9946C629.249 46.4482 626.819 47.3559 624.965 48.7166C623.11 50.0773 621.764 52.0952 620.928 54.7713C620.114 57.4474 619.707 61.0084 619.707 65.4535C619.707 70.0346 620.124 73.6976 620.961 76.4418C621.82 79.1859 623.177 81.2487 625.032 82.6321C626.908 83.9928 629.363 84.8896 632.393 85.3205C635.446 85.7741 639.154 85.9998 643.519 85.9998C647.34 85.9998 650.631 85.8869 653.39 85.6602C656.171 85.4562 658.454 84.969 660.241 84.1979C662.027 83.4268 663.35 82.2022 664.21 80.524C665.092 78.8458 665.533 76.5433 665.533 73.6177H659.462C659.462 75.1825 659.269 76.4305 658.885 77.3603C658.5 78.2901 657.754 78.9921 656.646 79.4684C655.561 79.922 653.955 80.2173 651.83 80.3534C649.727 80.4894 646.956 80.5573 643.519 80.5573C639.697 80.5573 636.633 80.4212 634.327 80.1491C632.043 79.8541 630.324 79.2652 629.17 78.3807C628.017 77.4962 627.248 76.1803 626.863 74.4341C626.479 72.6878 626.274 70.3638 626.253 67.461H665.533V59.0574C665.533 55.2474 664.719 52.3559 663.09 50.3828C661.485 48.4098 659.042 47.0723 655.764 46.3693C652.485 45.6662 648.346 45.3153 643.349 45.3153ZM643.349 50.7576C646.831 50.7576 649.625 50.883 651.728 51.1324C653.854 51.3817 655.459 51.8241 656.544 52.4591C657.63 53.0714 658.353 53.9218 658.715 55.0104C659.099 56.0763 659.292 57.4246 659.292 59.0575V62.3233C659.292 62.3233 640.933 62.3233 632.318 62.3233C629.671 62.3233 626.253 67.461 626.253 67.461C626.274 64.9436 626.491 57.7772 626.898 56.2351C627.328 54.6929 628.13 53.5363 629.306 52.7652C630.481 51.9715 632.19 51.438 634.429 51.1658C636.69 50.8937 639.663 50.7576 643.349 50.7576Z" fill="#F5F5F5"/>
<path d="M569.063 85.252V46.0632H575.576V51.2679C576.548 49.9525 577.747 48.8527 579.171 47.9682C580.619 47.0838 582.541 46.426 584.938 45.9951C587.357 45.5415 590.523 45.3148 594.435 45.3148C599.546 45.3148 603.571 45.8138 606.511 46.8116C609.474 47.8095 611.577 49.5898 612.82 52.1524C614.064 54.7151 614.686 58.3437 614.686 63.0382V85.252H608.139V63.0382C608.139 60.3621 607.913 58.2076 607.461 56.5747C607.009 54.9418 606.228 53.7059 605.12 52.8668C604.035 52.0277 602.531 51.472 600.609 51.1999C598.687 50.9052 596.245 50.7577 593.282 50.7577C588.759 50.7577 585.209 51.1319 582.631 51.8803C580.053 52.6287 578.233 53.8079 577.17 55.4181C576.107 57.0056 575.576 59.0807 575.576 61.6434V85.252H569.063Z" fill="#F5F5F5"/>
<path d="M556.173 39.5318V33.0003H562.686V39.5318H556.173Z" fill="#F5F5F5"/>
<path d="M556.173 85.2521V48.2404H562.686V85.2521H556.173Z" fill="#F5F5F5"/>
<path d="M528.155 86.0004C523.79 86.0004 520.082 85.7736 517.029 85.32C513.976 84.8891 511.511 83.9933 509.634 82.6326C507.757 81.2492 506.389 79.1855 505.53 76.4414C504.671 73.6972 504.241 70.0345 504.241 65.4534C504.241 61.0084 504.671 57.4479 505.53 54.7718C506.389 52.0957 507.757 50.0773 509.634 48.7166C511.511 47.3559 513.976 46.4487 517.029 45.9951C520.082 45.5415 523.79 45.3148 528.155 45.3148C533.379 45.3148 537.675 45.6209 541.045 46.2333C544.437 46.8229 546.947 48.0476 548.575 49.9073C550.203 51.7669 551.017 54.6017 551.017 58.4118H544.776C544.776 56.2119 544.324 54.5677 543.419 53.4791C542.515 52.3905 540.864 51.6648 538.467 51.302C536.07 50.9391 532.632 50.7577 528.155 50.7577C524.13 50.7577 520.941 50.9277 518.589 51.2679C516.238 51.6081 514.508 52.2772 513.399 53.275C512.291 54.2502 511.568 55.7129 511.229 57.6633C510.912 59.6137 510.754 62.2104 510.754 65.4534C510.754 68.8099 510.912 71.4973 511.229 73.5157C511.568 75.5341 512.291 77.0536 513.399 78.0742C514.508 79.072 516.238 79.7411 518.589 80.0813C520.941 80.3988 524.13 80.5575 528.155 80.5575C531.57 80.5575 534.362 80.4668 536.533 80.2853C538.704 80.0814 540.389 79.6958 541.587 79.1288C542.786 78.5391 543.611 77.7 544.064 76.6114C544.539 75.5002 544.776 74.026 544.776 72.1891H551.017C551.017 75.228 550.565 77.666 549.66 79.503C548.756 81.34 547.376 82.7233 545.522 83.6531C543.668 84.5829 541.293 85.2067 538.399 85.5242C535.527 85.8416 532.112 86.0004 528.155 86.0004Z" fill="#F5F5F5"/>
<path d="M473.543 86.0004C468.432 86.0004 464.407 85.4449 461.467 84.3337C458.528 83.1997 456.436 81.3174 455.192 78.6866C453.948 76.0332 453.326 72.416 453.326 67.8349V46.0633H459.873V67.8349C459.873 70.4202 460.077 72.5521 460.484 74.2303C460.913 75.8858 461.66 77.1785 462.722 78.1083C463.785 79.0155 465.278 79.6504 467.2 80.0133C469.145 80.3761 471.643 80.5576 474.696 80.5576C479.219 80.5576 482.769 80.1834 485.347 79.435C487.925 78.6866 489.746 77.5187 490.808 75.9311C491.894 74.3209 492.437 72.2345 492.437 69.6718V46.0633H498.949V85.2521H492.437V80.0473C491.487 81.3626 490.288 82.4626 488.841 83.347C487.394 84.2315 485.46 84.8892 483.041 85.3201C480.621 85.7736 477.455 86.0004 473.543 86.0004Z" fill="#F5F5F5"/>
<path d="M438.537 85.2521V33.0003H445.05V85.2521H438.537Z" fill="#F5F5F5"/>
<path d="M421.441 85.2521V33.0003H427.954V85.2521H421.441Z" fill="#F5F5F5"/>
<path d="M392.031 45.3153C387.78 45.3153 384.252 45.4514 381.448 45.7236C378.667 45.9957 376.474 46.5167 374.869 47.2878C373.263 48.0589 372.121 49.1923 371.442 50.6891C370.786 52.1859 370.458 54.159 370.458 56.6083H376.971C376.971 55.3837 377.085 54.3863 377.311 53.6152C377.56 52.8441 378.147 52.255 379.074 51.8468C380.002 51.4387 381.483 51.1542 383.518 50.9952C385.576 50.8363 388.413 50.7577 392.031 50.7577C395.197 50.7577 397.731 50.883 399.63 51.1325C401.552 51.3593 403.011 51.8911 404.006 52.7302C405.001 53.5693 405.679 54.862 406.041 56.6083C406.403 58.3319 406.606 64.9885 406.652 68.0048V74.0261C406.652 75.659 406.471 76.9284 406.109 77.8355C405.748 78.7426 404.989 79.4014 403.836 79.8097C402.705 80.2179 400.987 80.4667 398.681 80.5575C396.374 80.6482 393.288 80.693 389.421 80.693C386.368 80.693 383.902 80.6371 382.025 80.5238C380.171 80.4103 378.757 80.1491 377.785 79.7409C376.812 79.3327 376.157 78.6972 375.818 77.8354C375.501 76.9736 375.343 75.8061 375.343 74.332C375.343 72.8126 375.501 71.6111 375.818 70.7267C376.157 69.8195 376.812 69.1607 377.785 68.7525C378.757 68.3216 380.171 68.0493 382.025 67.9361C383.902 67.8 386.368 67.7553 389.421 67.8007L406.652 68.0048C406.652 68.0048 402.118 62.9478 399.427 62.7664C396.736 62.5849 393.401 62.4936 389.421 62.4936C384.513 62.4936 380.545 62.7426 377.515 63.2415C374.507 63.7404 372.302 64.8289 370.9 66.5071C369.521 68.1627 368.83 70.7713 368.83 74.3318C368.83 77.8244 369.565 80.3989 371.035 82.0545C372.528 83.71 374.79 84.7754 377.82 85.2517C380.873 85.7508 384.74 85.9995 389.421 85.9995C392.926 85.9995 395.797 85.8758 398.035 85.6264C400.297 85.3996 402.107 85.0362 403.464 84.5373C404.82 84.0384 405.883 83.3812 406.652 82.5648V85.2517H413.164V66.4051C413.164 62.0734 412.904 58.5356 412.384 55.7915C411.886 53.0474 410.903 50.9167 409.433 49.3972C407.985 47.855 405.861 46.788 403.057 46.1984C400.275 45.6086 396.599 45.3153 392.031 45.3153Z" fill="#F5F5F5"/>
<path d="M317 85.2523V33.0005H323.513V51.2682C324.485 49.9528 325.684 48.8529 327.108 47.9685C328.556 47.084 330.478 46.4262 332.875 45.9953C335.294 45.5418 338.46 45.3151 342.373 45.3151C347.483 45.3151 351.508 45.814 354.448 46.8119C357.411 47.8097 359.514 49.59 360.757 52.1527C362.001 54.7154 362.623 58.344 362.623 63.0384V85.2523H356.076V63.0384C356.076 60.3623 355.85 58.2078 355.398 56.575C354.946 54.9421 354.166 53.7062 353.057 52.867C351.972 52.0279 350.468 51.4723 348.546 51.2002C346.624 50.9055 344.182 50.7579 341.219 50.7579C336.696 50.7579 333.146 51.1322 330.568 51.8805C327.99 52.6289 326.17 53.8082 325.107 55.4184C324.044 57.0059 323.513 59.081 323.513 61.6437V85.2523H317Z" fill="#F5F5F5"/>
</g>
<path d="M713.969 94L715.969 82H721.969L717.969 94H713.969ZM58.9375 177L35.3438 129H42.25L62.9375 171.906L82.4375 129H89.4375L108.938 171.906L127.625 129H134.531L112.938 177H104.938L85.9375 135.031L66.9375 177H58.9375ZM141.062 177V129H147.062V145.781C147.958 144.573 149.062 143.562 150.375 142.75C151.708 141.938 153.479 141.333 155.688 140.938C157.917 140.521 160.833 140.312 164.438 140.312C169.146 140.312 172.854 140.771 175.562 141.688C178.292 142.604 180.229 144.24 181.375 146.594C182.521 148.948 183.094 152.281 183.094 156.594V177H177.062V156.594C177.062 154.135 176.854 152.156 176.438 150.656C176.021 149.156 175.302 148.021 174.281 147.25C173.281 146.479 171.896 145.969 170.125 145.719C168.354 145.448 166.104 145.312 163.375 145.312C159.208 145.312 155.938 145.656 153.562 146.344C151.188 147.031 149.51 148.115 148.531 149.594C147.552 151.052 147.062 152.958 147.062 155.312V177H141.062ZM210.062 177.688C205.75 177.688 202.188 177.458 199.375 177C196.583 176.562 194.5 175.583 193.125 174.062C191.771 172.542 191.094 170.177 191.094 166.969C191.094 163.698 191.729 161.302 193 159.781C194.292 158.24 196.323 157.24 199.094 156.781C201.885 156.323 205.542 156.094 210.062 156.094C213.729 156.094 216.802 156.177 219.281 156.344C221.76 156.51 223.979 156.802 225.938 157.219C225.896 154.448 225.708 152.271 225.375 150.688C225.042 149.083 224.417 147.896 223.5 147.125C222.583 146.354 221.24 145.865 219.469 145.656C217.719 145.427 215.385 145.312 212.469 145.312C209.135 145.312 206.521 145.385 204.625 145.531C202.75 145.677 201.385 145.938 200.531 146.312C199.677 146.688 199.135 147.229 198.906 147.938C198.698 148.646 198.594 149.562 198.594 150.688H192.594C192.594 148.438 192.896 146.625 193.5 145.25C194.125 143.875 195.177 142.833 196.656 142.125C198.135 141.417 200.156 140.938 202.719 140.688C205.302 140.438 208.552 140.312 212.469 140.312C216.677 140.312 220.062 140.583 222.625 141.125C225.208 141.667 227.167 142.646 228.5 144.062C229.854 145.458 230.76 147.417 231.219 149.938C231.698 152.458 231.938 155.708 231.938 159.688V177H225.938V174.531C225.229 175.281 224.25 175.885 223 176.344C221.75 176.802 220.083 177.135 218 177.344C215.938 177.573 213.292 177.688 210.062 177.688ZM210.062 172.812C213.625 172.812 216.469 172.771 218.594 172.688C220.719 172.604 222.302 172.375 223.344 172C224.406 171.625 225.104 171.021 225.438 170.188C225.771 169.354 225.938 168.188 225.938 166.688V161.156L210.062 160.969C207.25 160.927 204.979 160.969 203.25 161.094C201.542 161.198 200.24 161.448 199.344 161.844C198.448 162.219 197.844 162.823 197.531 163.656C197.24 164.469 197.094 165.573 197.094 166.969C197.094 168.323 197.24 169.396 197.531 170.188C197.844 170.979 198.448 171.562 199.344 171.938C200.24 172.312 201.542 172.552 203.25 172.656C204.979 172.76 207.25 172.812 210.062 172.812ZM256.469 177C252.802 177 249.865 176.635 247.656 175.906C245.448 175.156 243.844 173.844 242.844 171.969C241.865 170.073 241.375 167.417 241.375 164V131.156H247.375V141H269.531V145.938H247.375V164C247.375 166.333 247.583 168.073 248 169.219C248.438 170.365 249.302 171.115 250.594 171.469C251.906 171.823 253.865 172 256.469 172C258.781 172 260.594 171.927 261.906 171.781C263.24 171.635 264.219 171.25 264.844 170.625C265.469 169.979 265.865 168.927 266.031 167.469C266.198 166.01 266.281 163.958 266.281 161.312H271.594C271.594 164.771 271.375 167.542 270.938 169.625C270.521 171.708 269.76 173.281 268.656 174.344C267.573 175.406 266.042 176.115 264.062 176.469C262.104 176.823 259.573 177 256.469 177ZM325.562 177V157L298.562 129H306.562L328.562 152.5L350.562 129H358.562L331.562 157V177H325.562ZM387.594 177.688C383.573 177.688 380.156 177.479 377.344 177.062C374.531 176.667 372.26 175.844 370.531 174.594C368.802 173.323 367.542 171.427 366.75 168.906C365.958 166.385 365.562 163.021 365.562 158.812C365.562 154.729 365.958 151.458 366.75 149C367.542 146.542 368.802 144.688 370.531 143.438C372.26 142.188 374.531 141.354 377.344 140.938C380.156 140.521 383.573 140.312 387.594 140.312C391.635 140.312 395.052 140.521 397.844 140.938C400.656 141.354 402.927 142.188 404.656 143.438C406.385 144.688 407.646 146.542 408.438 149C409.229 151.458 409.625 154.729 409.625 158.812C409.625 163.021 409.229 166.385 408.438 168.906C407.646 171.427 406.385 173.323 404.656 174.594C402.927 175.844 400.656 176.667 397.844 177.062C395.052 177.479 391.635 177.688 387.594 177.688ZM403.625 158.812C403.625 155.833 403.469 153.448 403.156 151.656C402.865 149.865 402.208 148.521 401.188 147.625C400.167 146.708 398.573 146.094 396.406 145.781C394.26 145.469 391.323 145.312 387.594 145.312C383.885 145.312 380.948 145.469 378.781 145.781C376.615 146.094 375.021 146.708 374 147.625C372.979 148.521 372.312 149.865 372 151.656C371.708 153.448 371.562 155.833 371.562 158.812C371.562 161.896 371.708 164.365 372 166.219C372.312 168.073 372.979 169.469 374 170.406C375.021 171.323 376.615 171.938 378.781 172.25C380.948 172.542 383.885 172.688 387.594 172.688C391.323 172.688 394.26 172.542 396.406 172.25C398.573 171.938 400.167 171.323 401.188 170.406C402.208 169.469 402.865 168.073 403.156 166.219C403.469 164.365 403.625 161.896 403.625 158.812ZM435.125 177.688C430.417 177.688 426.708 177.177 424 176.156C421.292 175.115 419.365 173.385 418.219 170.969C417.073 168.531 416.5 165.208 416.5 161V141H422.531V161C422.531 163.375 422.719 165.333 423.094 166.875C423.49 168.396 424.177 169.583 425.156 170.438C426.135 171.271 427.51 171.854 429.281 172.188C431.073 172.521 433.375 172.688 436.188 172.688C440.354 172.688 443.625 172.344 446 171.656C448.375 170.969 450.052 169.896 451.031 168.438C452.031 166.958 452.531 165.042 452.531 162.688V141H458.531V177H452.531V172.219C451.656 173.427 450.552 174.438 449.219 175.25C447.885 176.062 446.104 176.667 443.875 177.062C441.646 177.479 438.729 177.688 435.125 177.688ZM466.688 141L468.688 129H474.688L470.688 141H466.688ZM499.5 177L480.688 141H487.75L503.5 172.5H503.562L519.625 141H526.312L507.5 177H499.5ZM571.531 166.312C571.531 169 571.125 171.115 570.312 172.656C569.521 174.198 568.302 175.323 566.656 176.031C565.01 176.74 562.906 177.188 560.344 177.375C557.802 177.583 554.771 177.688 551.25 177.688C547.229 177.688 543.812 177.479 541 177.062C538.208 176.667 535.948 175.844 534.219 174.594C532.51 173.323 531.26 171.427 530.469 168.906C529.698 166.385 529.312 163.021 529.312 158.812C529.312 154.729 529.688 151.458 530.438 149C531.208 146.542 532.448 144.688 534.156 143.438C535.865 142.188 538.104 141.354 540.875 140.938C543.667 140.521 547.073 140.312 551.094 140.312C555.698 140.312 559.51 140.635 562.531 141.281C565.552 141.927 567.802 143.156 569.281 144.969C570.781 146.781 571.531 149.438 571.531 152.938V160.656H535.344C535.365 163.323 535.552 165.458 535.906 167.062C536.26 168.667 536.969 169.875 538.031 170.688C539.094 171.5 540.677 172.042 542.781 172.312C544.906 172.562 547.729 172.688 551.25 172.688C554.417 172.688 556.969 172.625 558.906 172.5C560.865 172.375 562.344 172.104 563.344 171.688C564.365 171.25 565.052 170.604 565.406 169.75C565.76 168.896 565.938 167.75 565.938 166.312H571.531ZM551.094 145.312C547.698 145.312 544.958 145.438 542.875 145.688C540.812 145.938 539.24 146.427 538.156 147.156C537.073 147.865 536.333 148.927 535.938 150.344C535.562 151.76 535.365 153.625 535.344 155.938H565.781V152.938C565.781 151.438 565.604 150.198 565.25 149.219C564.917 148.219 564.25 147.438 563.25 146.875C562.25 146.292 560.771 145.885 558.812 145.656C556.875 145.427 554.302 145.312 551.094 145.312ZM619.5 177L595.906 129H602.812L623.5 171.906L643 129H650L669.5 171.906L688.188 129H695.094L673.5 177H665.5L646.5 135.031L627.5 177H619.5ZM712.5 177.688C708.188 177.688 704.625 177.458 701.812 177C699.021 176.562 696.938 175.583 695.562 174.062C694.208 172.542 693.531 170.177 693.531 166.969C693.531 163.698 694.167 161.302 695.438 159.781C696.729 158.24 698.76 157.24 701.531 156.781C704.323 156.323 707.979 156.094 712.5 156.094C716.167 156.094 719.24 156.177 721.719 156.344C724.198 156.51 726.417 156.802 728.375 157.219C728.333 154.448 728.146 152.271 727.812 150.688C727.479 149.083 726.854 147.896 725.938 147.125C725.021 146.354 723.677 145.865 721.906 145.656C720.156 145.427 717.823 145.312 714.906 145.312C711.573 145.312 708.958 145.385 707.062 145.531C705.188 145.677 703.823 145.938 702.969 146.312C702.115 146.688 701.573 147.229 701.344 147.938C701.135 148.646 701.031 149.562 701.031 150.688H695.031C695.031 148.438 695.333 146.625 695.938 145.25C696.562 143.875 697.615 142.833 699.094 142.125C700.573 141.417 702.594 140.938 705.156 140.688C707.74 140.438 710.99 140.312 714.906 140.312C719.115 140.312 722.5 140.583 725.062 141.125C727.646 141.667 729.604 142.646 730.938 144.062C732.292 145.458 733.198 147.417 733.656 149.938C734.135 152.458 734.375 155.708 734.375 159.688V177H728.375V174.531C727.667 175.281 726.688 175.885 725.438 176.344C724.188 176.802 722.521 177.135 720.438 177.344C718.375 177.573 715.729 177.688 712.5 177.688ZM712.5 172.812C716.062 172.812 718.906 172.771 721.031 172.688C723.156 172.604 724.74 172.375 725.781 172C726.844 171.625 727.542 171.021 727.875 170.188C728.208 169.354 728.375 168.188 728.375 166.688V161.156L712.5 160.969C709.688 160.927 707.417 160.969 705.688 161.094C703.979 161.198 702.677 161.448 701.781 161.844C700.885 162.219 700.281 162.823 699.969 163.656C699.677 164.469 699.531 165.573 699.531 166.969C699.531 168.323 699.677 169.396 699.969 170.188C700.281 170.979 700.885 171.562 701.781 171.938C702.677 172.312 703.979 172.552 705.688 172.656C707.417 172.76 709.688 172.812 712.5 172.812ZM742.25 177V143H748.25V177H742.25ZM742.25 135V129H748.25V135H742.25ZM772.906 177C769.24 177 766.302 176.635 764.094 175.906C761.885 175.156 760.281 173.844 759.281 171.969C758.302 170.073 757.812 167.417 757.812 164V131.156H763.812V141H785.969V145.938H763.812V164C763.812 166.333 764.021 168.073 764.438 169.219C764.875 170.365 765.74 171.115 767.031 171.469C768.344 171.823 770.302 172 772.906 172C775.219 172 777.031 171.927 778.344 171.781C779.677 171.635 780.656 171.25 781.281 170.625C781.906 169.979 782.302 168.927 782.469 167.469C782.635 166.01 782.719 163.958 782.719 161.312H788.031C788.031 164.771 787.812 167.542 787.375 169.625C786.958 171.708 786.198 173.281 785.094 174.344C784.01 175.406 782.479 176.115 780.5 176.469C778.542 176.823 776.01 177 772.906 177ZM836.031 166.312C836.031 169 835.625 171.115 834.812 172.656C834.021 174.198 832.802 175.323 831.156 176.031C829.51 176.74 827.406 177.188 824.844 177.375C822.302 177.583 819.271 177.688 815.75 177.688C811.729 177.688 808.312 177.479 805.5 177.062C802.708 176.667 800.448 175.844 798.719 174.594C797.01 173.323 795.76 171.427 794.969 168.906C794.198 166.385 793.812 163.021 793.812 158.812C793.812 154.729 794.188 151.458 794.938 149C795.708 146.542 796.948 144.688 798.656 143.438C800.365 142.188 802.604 141.354 805.375 140.938C808.167 140.521 811.573 140.312 815.594 140.312C820.198 140.312 824.01 140.635 827.031 141.281C830.052 141.927 832.302 143.156 833.781 144.969C835.281 146.781 836.031 149.438 836.031 152.938V160.656H799.844C799.865 163.323 800.052 165.458 800.406 167.062C800.76 168.667 801.469 169.875 802.531 170.688C803.594 171.5 805.177 172.042 807.281 172.312C809.406 172.562 812.229 172.688 815.75 172.688C818.917 172.688 821.469 172.625 823.406 172.5C825.365 172.375 826.844 172.104 827.844 171.688C828.865 171.25 829.552 170.604 829.906 169.75C830.26 168.896 830.438 167.75 830.438 166.312H836.031ZM815.594 145.312C812.198 145.312 809.458 145.438 807.375 145.688C805.312 145.938 803.74 146.427 802.656 147.156C801.573 147.865 800.833 148.927 800.438 150.344C800.062 151.76 799.865 153.625 799.844 155.938H830.281V152.938C830.281 151.438 830.104 150.198 829.75 149.219C829.417 148.219 828.75 147.438 827.75 146.875C826.75 146.292 825.271 145.885 823.312 145.656C821.375 145.427 818.802 145.312 815.594 145.312ZM864.844 177.688C860.823 177.688 857.406 177.479 854.594 177.062C851.781 176.667 849.51 175.844 847.781 174.594C846.052 173.323 844.792 171.427 844 168.906C843.208 166.385 842.812 163.021 842.812 158.812C842.812 154.729 843.208 151.458 844 149C844.792 146.542 846.052 144.688 847.781 143.438C849.51 142.188 851.781 141.354 854.594 140.938C857.406 140.521 860.823 140.312 864.844 140.312C868.698 140.312 871.948 140.604 874.594 141.188C877.26 141.771 879.354 143.073 880.875 145.094V129H886.875V177H880.875V172.875C879.354 174.917 877.26 176.229 874.594 176.812C871.948 177.396 868.698 177.688 864.844 177.688ZM880.875 158.812C880.875 155.833 880.667 153.448 880.25 151.656C879.833 149.865 879.062 148.521 877.938 147.625C876.812 146.708 875.198 146.094 873.094 145.781C870.99 145.469 868.24 145.312 864.844 145.312C861.135 145.312 858.198 145.469 856.031 145.781C853.865 146.094 852.271 146.708 851.25 147.625C850.229 148.521 849.562 149.865 849.25 151.656C848.958 153.448 848.812 155.833 848.812 158.812C848.812 161.896 848.958 164.365 849.25 166.219C849.562 168.073 850.229 169.469 851.25 170.406C852.271 171.323 853.865 171.938 856.031 172.25C858.198 172.542 861.135 172.688 864.844 172.688C868.24 172.688 870.99 172.542 873.094 172.25C875.198 171.938 876.812 171.323 877.938 170.406C879.062 169.469 879.833 168.073 880.25 166.219C880.667 164.365 880.875 161.896 880.875 158.812ZM919.188 177V145.562H913.188V141H919.188V139.438C919.188 136.021 919.74 133.396 920.844 131.562C921.969 129.729 923.708 128.469 926.062 127.781C928.438 127.094 931.49 126.75 935.219 126.75H942.188V131.625H935.188C932.208 131.625 930.01 131.812 928.594 132.188C927.177 132.562 926.25 133.312 925.812 134.438C925.396 135.542 925.188 137.208 925.188 139.438V141H942.188V145.562H925.188V177H919.188ZM967.219 177.688C963.198 177.688 959.781 177.479 956.969 177.062C954.156 176.667 951.885 175.844 950.156 174.594C948.427 173.323 947.167 171.427 946.375 168.906C945.583 166.385 945.188 163.021 945.188 158.812C945.188 154.729 945.583 151.458 946.375 149C947.167 146.542 948.427 144.688 950.156 143.438C951.885 142.188 954.156 141.354 956.969 140.938C959.781 140.521 963.198 140.312 967.219 140.312C971.26 140.312 974.677 140.521 977.469 140.938C980.281 141.354 982.552 142.188 984.281 143.438C986.01 144.688 987.271 146.542 988.062 149C988.854 151.458 989.25 154.729 989.25 158.812C989.25 163.021 988.854 166.385 988.062 168.906C987.271 171.427 986.01 173.323 984.281 174.594C982.552 175.844 980.281 176.667 977.469 177.062C974.677 177.479 971.26 177.688 967.219 177.688ZM983.25 158.812C983.25 155.833 983.094 153.448 982.781 151.656C982.49 149.865 981.833 148.521 980.812 147.625C979.792 146.708 978.198 146.094 976.031 145.781C973.885 145.469 970.948 145.312 967.219 145.312C963.51 145.312 960.573 145.469 958.406 145.781C956.24 146.094 954.646 146.708 953.625 147.625C952.604 148.521 951.938 149.865 951.625 151.656C951.333 153.448 951.188 155.833 951.188 158.812C951.188 161.896 951.333 164.365 951.625 166.219C951.938 168.073 952.604 169.469 953.625 170.406C954.646 171.323 956.24 171.938 958.406 172.25C960.573 172.542 963.51 172.688 967.219 172.688C970.948 172.688 973.885 172.542 976.031 172.25C978.198 171.938 979.792 171.323 980.812 170.406C981.833 169.469 982.49 168.073 982.781 166.219C983.094 164.365 983.25 161.896 983.25 158.812ZM996.875 177V141H1002.88V145.969C1003.54 144.906 1004.21 144.021 1004.88 143.312C1005.56 142.604 1006.45 142.042 1007.53 141.625C1008.64 141.208 1010.12 140.917 1012 140.75C1013.88 140.562 1016.34 140.469 1019.41 140.469V145.5C1015.28 145.5 1012.08 145.646 1009.81 145.938C1007.56 146.229 1005.95 146.729 1004.97 147.438C1003.99 148.125 1003.4 149.083 1003.19 150.312C1002.98 151.542 1002.88 153.104 1002.88 155V177H996.875Z" fill="white"/>
<defs>
<clipPath id="clip0_138_31">
<rect width="389" height="53" fill="white" transform="translate(317 33)"/>
</clipPath>
</defs>
</svg>
