<svg width="618" height="84" viewBox="0 0 618 84" fill="none" xmlns="http://www.w3.org/2000/svg">
<g clip-path="url(#clip0_96_16)">
<path d="M591.629 82.7337C585.309 82.7337 580.246 82.1052 576.44 80.8485C572.633 79.5558 569.868 77.2937 568.145 74.0619C566.457 70.7942 565.613 66.2158 565.613 60.3268V3.71704H575.955V20.6838H614.144V29.1942H575.955V60.3268C575.955 64.3485 576.314 67.3469 577.032 69.3219C577.786 71.2969 579.276 72.5896 581.503 73.2001C583.765 73.8105 587.14 74.1157 591.629 74.1157C595.615 74.1157 598.739 73.9901 601.001 73.7385C603.299 73.4869 604.987 72.8227 606.064 71.7456C607.142 70.6324 607.824 68.819 608.111 66.3054C608.398 63.7918 608.542 60.2548 608.542 55.6944H617.698C617.698 61.6552 617.321 66.4311 616.567 70.0219C615.849 73.6128 614.539 76.3239 612.635 78.1552C610.768 79.9866 608.129 81.2075 604.718 81.8179C601.342 82.4284 596.979 82.7337 591.629 82.7337Z" fill="#F5F5F5"/>
<path d="M518.213 19.4996C511.283 19.4996 505.412 19.8572 500.6 20.5752C495.824 21.2934 491.966 22.7305 489.022 24.885C486.077 27.0395 483.94 30.2345 482.611 34.4718C481.318 38.709 480.672 44.3474 480.672 51.3855C480.672 58.639 481.335 64.4389 482.664 68.7839C484.029 73.1288 486.183 76.3949 489.128 78.5853C492.108 80.7398 496.006 82.1598 500.817 82.8421C505.665 83.5602 511.553 83.9177 518.484 83.9177C524.552 83.9177 529.777 83.7389 534.158 83.3799C538.574 83.0569 542.2 82.2855 545.037 81.0646C547.874 79.8437 549.975 77.9048 551.339 75.2475C552.74 72.5903 553.44 68.9446 553.44 64.3124H543.8C543.8 66.7901 543.494 68.766 542.883 70.2382C542.273 71.7105 541.088 72.822 539.329 73.5761C537.605 74.2944 535.056 74.7619 531.681 74.9773C528.341 75.1928 523.942 75.3003 518.484 75.3003C512.415 75.3003 507.55 75.0848 503.888 74.6539C500.261 74.1868 497.531 73.2543 495.7 71.8539C493.868 70.4535 492.647 68.3699 492.036 65.605C491.426 62.8401 491.101 59.1603 491.067 54.564H553.44V41.2582C553.44 35.2255 552.147 30.6473 549.562 27.5233C547.012 24.3992 543.134 22.2815 537.927 21.1683C532.72 20.0552 526.149 19.4996 518.213 19.4996ZM518.213 28.1167C523.743 28.1167 528.18 28.3152 531.519 28.7101C534.895 29.1049 537.443 29.8052 539.167 30.8107C540.89 31.7802 542.039 33.1267 542.613 34.8503C543.224 36.5381 543.53 38.6729 543.53 41.2584V46.4293C543.53 46.4293 514.377 46.4293 500.697 46.4293C496.495 46.4293 491.067 54.564 491.067 54.564C491.101 50.5782 491.445 39.2312 492.092 36.7894C492.774 34.3477 494.047 32.5163 495.914 31.2954C497.781 30.0386 500.494 29.194 504.049 28.7631C507.64 28.3321 512.36 28.1167 518.213 28.1167Z" fill="#F5F5F5"/>
<path d="M400.255 82.7336V20.6837H410.596V28.9246C412.14 26.842 414.043 25.1005 416.306 23.7001C418.604 22.2996 421.656 21.2582 425.462 20.5759C429.305 19.8577 434.332 19.4988 440.544 19.4988C448.659 19.4988 455.051 20.2888 459.719 21.8688C464.423 23.4488 467.763 26.2675 469.738 30.3252C471.713 34.3828 472.7 40.1282 472.7 47.5612V82.7336H462.304V47.5612C462.304 43.324 461.945 39.9126 461.227 37.3272C460.509 34.7418 459.27 32.7849 457.511 31.4563C455.787 30.1277 453.399 29.2479 450.347 28.817C447.295 28.3504 443.417 28.1168 438.713 28.1168C431.531 28.1168 425.893 28.7093 421.8 29.8943C417.706 31.0792 414.816 32.9464 413.128 35.4959C411.44 38.0095 410.596 41.2952 410.596 45.3528V82.7336H400.255Z" fill="#F5F5F5"/>
<path d="M379.787 10.3421V0.000488281H390.128V10.3421H379.787Z" fill="#F5F5F5"/>
<path d="M379.787 82.7338V24.1311H390.128V82.7338H379.787Z" fill="#F5F5F5"/>
<path d="M335.296 83.9186C328.365 83.9186 322.477 83.5595 317.629 82.8413C312.781 82.159 308.867 80.7407 305.887 78.5862C302.906 76.3958 300.734 73.1281 299.369 68.7832C298.005 64.4383 297.323 58.6389 297.323 51.3854C297.323 44.3473 298.005 38.7098 299.369 34.4726C300.734 30.2354 302.906 27.0395 305.887 24.885C308.867 22.7305 312.781 21.2941 317.629 20.5759C322.477 19.8577 328.365 19.4988 335.296 19.4988C343.591 19.4988 350.413 19.9834 355.764 20.953C361.15 21.8866 365.136 23.8257 367.721 26.7702C370.307 29.7147 371.599 34.2033 371.599 40.2359H361.689C361.689 36.7528 360.97 34.1494 359.534 32.4257C358.098 30.7021 355.476 29.5531 351.67 28.9786C347.864 28.4041 342.406 28.1168 335.296 28.1168C328.904 28.1168 323.841 28.3859 320.107 28.9246C316.372 29.4633 313.625 30.5227 311.865 32.1026C310.106 33.6467 308.957 35.9627 308.418 39.0508C307.916 42.139 307.664 46.2505 307.664 51.3854C307.664 56.6999 307.915 60.955 308.418 64.1509C308.957 67.3468 310.106 69.7527 311.865 71.3685C313.625 72.9485 316.372 74.0079 320.107 74.5465C323.841 75.0492 328.904 75.3005 335.296 75.3005C340.718 75.3005 345.153 75.1569 348.6 74.8696C352.047 74.5467 354.722 73.9361 356.626 73.0383C358.529 72.1047 359.839 70.7761 360.558 69.0525C361.312 67.293 361.689 64.9589 361.689 62.0503H371.599C371.599 66.862 370.881 70.7223 369.445 73.6309C368.008 76.5395 365.818 78.7298 362.874 80.202C359.929 81.6743 356.159 82.6618 351.562 83.1645C347.002 83.6672 341.58 83.9186 335.296 83.9186Z" fill="#F5F5F5"/>
<path d="M248.577 83.9187C240.462 83.9187 234.07 83.0391 229.402 81.2796C224.734 79.4841 221.412 76.5037 219.437 72.3383C217.462 68.137 216.475 62.4096 216.475 55.1561V20.6838H226.87V55.1561C226.87 59.2497 227.193 62.6251 227.84 65.2823C228.522 67.9036 229.707 69.9504 231.395 71.4226C233.082 72.859 235.452 73.8643 238.504 74.4389C241.593 75.0134 245.56 75.3007 250.408 75.3007C257.59 75.3007 263.227 74.7082 267.321 73.5232C271.415 72.3383 274.305 70.489 275.993 67.9754C277.717 65.4259 278.578 62.1223 278.578 58.0646V20.6838H288.92V82.7338H278.578V74.4927C277.07 76.5754 275.167 78.317 272.869 79.7174C270.571 81.1178 267.501 82.1592 263.658 82.8414C259.816 83.5596 254.789 83.9187 248.577 83.9187Z" fill="#F5F5F5"/>
<path d="M192.99 82.7337V0.000488281H203.332V82.7337H192.99Z" fill="#F5F5F5"/>
<path d="M165.844 82.7337V0.000488281H176.185V82.7337H165.844Z" fill="#F5F5F5"/>
<path d="M119.143 19.4996C112.393 19.4996 106.791 19.7151 102.338 20.146C97.9215 20.5769 94.4401 21.4018 91.8906 22.6227C89.3411 23.8436 87.5269 25.6382 86.4496 28.0082C85.4083 30.3782 84.8867 33.5023 84.8867 37.3804H95.2284C95.2284 35.4414 95.4096 33.8622 95.7687 32.6413C96.1634 31.4204 97.0965 30.4876 98.5687 29.8413C100.041 29.195 102.394 28.7446 105.626 28.4929C108.893 28.2413 113.398 28.1167 119.143 28.1167C124.171 28.1167 128.193 28.3152 131.209 28.7102C134.262 29.0693 136.578 29.9114 138.158 31.24C139.738 32.5686 140.815 34.6155 141.39 37.3804C141.964 40.1095 142.287 50.6493 142.359 55.4252V64.959C142.359 67.5444 142.073 69.5543 141.498 70.9907C140.924 72.427 139.719 73.4701 137.888 74.1165C136.092 74.7628 133.365 75.1568 129.702 75.3005C126.04 75.4441 121.138 75.515 114.998 75.515C110.15 75.515 106.235 75.4266 103.255 75.2473C100.31 75.0675 98.0651 74.654 96.521 74.0076C94.977 73.3613 93.9365 72.3551 93.3978 70.9905C92.8949 69.626 92.6429 67.7775 92.6429 65.4434C92.6429 63.0375 92.895 61.1353 93.3978 59.7348C93.9365 58.2985 94.977 57.2554 96.521 56.609C98.0651 55.9267 100.31 55.4956 103.255 55.3163C106.235 55.1009 110.15 55.0301 114.998 55.1019L142.359 55.4252C142.359 55.4252 135.159 47.4181 130.886 47.1308C126.613 46.8436 121.318 46.6989 114.998 46.6989C107.206 46.6989 100.904 47.0932 96.0918 47.8831C91.316 48.6731 87.8149 50.3966 85.5886 53.0538C83.3982 55.6752 82.3013 59.8055 82.3013 65.4431C82.3013 70.973 83.4692 75.0494 85.8033 77.6708C88.1732 80.2921 91.7649 81.9791 96.5766 82.7331C101.424 83.5234 107.565 83.9172 114.998 83.9172C120.564 83.9172 125.122 83.7213 128.677 83.3264C132.268 82.9673 135.142 82.392 137.297 81.602C139.451 80.8121 141.138 79.7715 142.359 78.4788V82.7331H152.701V52.8922C152.701 46.0337 152.287 40.432 151.461 36.0871C150.671 31.7422 149.109 28.3685 146.775 25.9627C144.477 23.5209 141.103 21.8314 136.65 20.8978C132.234 19.9639 126.397 19.4996 119.143 19.4996Z" fill="#F5F5F5"/>
<path d="M0 82.7337V0.000488281H10.3417V28.9247C11.8857 26.8421 13.7888 25.1006 16.051 23.7002C18.3492 22.2997 21.4015 21.2583 25.2078 20.576C29.05 19.8578 34.0772 19.4989 40.2894 19.4989C48.4046 19.4989 54.7964 20.2889 59.4645 21.8689C64.1685 23.4488 67.508 26.2676 69.483 30.3253C71.4579 34.3829 72.4454 40.1283 72.4454 47.5613V82.7337H62.0499V47.5613C62.0499 43.3241 61.6908 39.9127 60.9726 37.3273C60.2544 34.7419 59.0156 32.785 57.2561 31.4564C55.5325 30.1278 53.1446 29.248 50.0924 28.8171C47.0402 28.3505 43.162 28.1169 38.458 28.1169C31.2763 28.1169 25.6386 28.7094 21.5451 29.8944C17.4515 31.0793 14.5608 32.9465 12.8731 35.496C11.1854 38.0096 10.3417 41.2953 10.3417 45.3529V82.7337H0Z" fill="#F5F5F5"/>
</g>
<defs>
<clipPath id="clip0_96_16">
<rect width="617.699" height="83.918" fill="white"/>
</clipPath>
</defs>
</svg>
