<svg width="985" height="140" viewBox="0 0 985 140" fill="none" xmlns="http://www.w3.org/2000/svg">
<path d="M296.281 48V0H302.281V16.7812C303.177 15.5729 304.281 14.5625 305.594 13.75C306.927 12.9375 308.698 12.3333 310.906 11.9375C313.135 11.5208 316.052 11.3125 319.656 11.3125C324.365 11.3125 328.073 11.7708 330.781 12.6875C333.51 13.6042 335.448 15.2396 336.594 17.5938C337.74 19.9479 338.312 23.2812 338.312 27.5938V48H332.281V27.5938C332.281 25.1354 332.073 23.1562 331.656 21.6562C331.24 20.1562 330.521 19.0208 329.5 18.25C328.5 17.4792 327.115 16.9688 325.344 16.7188C323.573 16.4479 321.323 16.3125 318.594 16.3125C314.427 16.3125 311.156 16.6562 308.781 17.3438C306.406 18.0312 304.729 19.1146 303.75 20.5938C302.771 22.0521 302.281 23.9583 302.281 26.3125V48H296.281ZM365.281 48.6875C360.969 48.6875 357.406 48.4583 354.594 48C351.802 47.5625 349.719 46.5833 348.344 45.0625C346.99 43.5417 346.312 41.1771 346.312 37.9688C346.312 34.6979 346.948 32.3021 348.219 30.7812C349.51 29.2396 351.542 28.2396 354.312 27.7812C357.104 27.3229 360.76 27.0938 365.281 27.0938C368.948 27.0938 372.021 27.1771 374.5 27.3438C376.979 27.5104 379.198 27.8021 381.156 28.2188C381.115 25.4479 380.927 23.2708 380.594 21.6875C380.26 20.0833 379.635 18.8958 378.719 18.125C377.802 17.3542 376.458 16.8646 374.688 16.6562C372.938 16.4271 370.604 16.3125 367.688 16.3125C364.354 16.3125 361.74 16.3854 359.844 16.5312C357.969 16.6771 356.604 16.9375 355.75 17.3125C354.896 17.6875 354.354 18.2292 354.125 18.9375C353.917 19.6458 353.812 20.5625 353.812 21.6875H347.812C347.812 19.4375 348.115 17.625 348.719 16.25C349.344 14.875 350.396 13.8333 351.875 13.125C353.354 12.4167 355.375 11.9375 357.938 11.6875C360.521 11.4375 363.771 11.3125 367.688 11.3125C371.896 11.3125 375.281 11.5833 377.844 12.125C380.427 12.6667 382.385 13.6458 383.719 15.0625C385.073 16.4583 385.979 18.4167 386.438 20.9375C386.917 23.4583 387.156 26.7083 387.156 30.6875V48H381.156V45.5312C380.448 46.2812 379.469 46.8854 378.219 47.3438C376.969 47.8021 375.302 48.1354 373.219 48.3438C371.156 48.5729 368.51 48.6875 365.281 48.6875ZM365.281 43.8125C368.844 43.8125 371.688 43.7708 373.812 43.6875C375.938 43.6042 377.521 43.375 378.562 43C379.625 42.625 380.323 42.0208 380.656 41.1875C380.99 40.3542 381.156 39.1875 381.156 37.6875V32.1562L365.281 31.9688C362.469 31.9271 360.198 31.9688 358.469 32.0938C356.76 32.1979 355.458 32.4479 354.562 32.8438C353.667 33.2188 353.062 33.8229 352.75 34.6562C352.458 35.4688 352.312 36.5729 352.312 37.9688C352.312 39.3229 352.458 40.3958 352.75 41.1875C353.062 41.9792 353.667 42.5625 354.562 42.9375C355.458 43.3125 356.76 43.5521 358.469 43.6562C360.198 43.7604 362.469 43.8125 365.281 43.8125ZM397.031 48V0H403.031V48H397.031ZM415.031 48V0H421.031V48H415.031ZM449.531 48.6875C444.823 48.6875 441.115 48.1771 438.406 47.1562C435.698 46.1146 433.771 44.3854 432.625 41.9688C431.479 39.5312 430.906 36.2083 430.906 32V12H436.938V32C436.938 34.375 437.125 36.3333 437.5 37.875C437.896 39.3958 438.583 40.5833 439.562 41.4375C440.542 42.2708 441.917 42.8542 443.688 43.1875C445.479 43.5208 447.781 43.6875 450.594 43.6875C454.76 43.6875 458.031 43.3438 460.406 42.6562C462.781 41.9688 464.458 40.8958 465.438 39.4375C466.438 37.9583 466.938 36.0417 466.938 33.6875V12H472.938V48H466.938V43.2188C466.062 44.4271 464.958 45.4375 463.625 46.25C462.292 47.0625 460.51 47.6667 458.281 48.0625C456.052 48.4792 453.135 48.6875 449.531 48.6875ZM502.125 48.6875C498.104 48.6875 494.688 48.4792 491.875 48.0625C489.062 47.6667 486.792 46.8438 485.062 45.5938C483.333 44.3229 482.073 42.4271 481.281 39.9062C480.49 37.3854 480.094 34.0208 480.094 29.8125C480.094 25.7292 480.49 22.4583 481.281 20C482.073 17.5417 483.333 15.6875 485.062 14.4375C486.792 13.1875 489.062 12.3542 491.875 11.9375C494.688 11.5208 498.104 11.3125 502.125 11.3125C506.938 11.3125 510.896 11.5938 514 12.1562C517.125 12.6979 519.438 13.8229 520.938 15.5312C522.438 17.2396 523.188 19.8438 523.188 23.3438H517.438C517.438 21.3229 517.021 19.8125 516.188 18.8125C515.354 17.8125 513.833 17.1458 511.625 16.8125C509.417 16.4792 506.25 16.3125 502.125 16.3125C498.417 16.3125 495.479 16.4688 493.312 16.7812C491.146 17.0938 489.552 17.7083 488.531 18.625C487.51 19.5208 486.844 20.8646 486.531 22.6562C486.24 24.4479 486.094 26.8333 486.094 29.8125C486.094 32.8958 486.24 35.3646 486.531 37.2188C486.844 39.0729 487.51 40.4688 488.531 41.4062C489.552 42.3229 491.146 42.9375 493.312 43.25C495.479 43.5417 498.417 43.6875 502.125 43.6875C505.271 43.6875 507.844 43.6042 509.844 43.4375C511.844 43.25 513.396 42.8958 514.5 42.375C515.604 41.8333 516.365 41.0625 516.781 40.0625C517.219 39.0417 517.438 37.6875 517.438 36H523.188C523.188 38.7917 522.771 41.0312 521.938 42.7188C521.104 44.4062 519.833 45.6771 518.125 46.5312C516.417 47.3854 514.229 47.9583 511.562 48.25C508.917 48.5417 505.771 48.6875 502.125 48.6875ZM530.219 48V14H536.219V48H530.219ZM530.219 6V0H536.219V6H530.219ZM544.344 48V12H550.344V16.7812C551.24 15.5729 552.344 14.5625 553.656 13.75C554.99 12.9375 556.76 12.3333 558.969 11.9375C561.198 11.5208 564.115 11.3125 567.719 11.3125C572.427 11.3125 576.135 11.7708 578.844 12.6875C581.573 13.6042 583.51 15.2396 584.656 17.5938C585.802 19.9479 586.375 23.2812 586.375 27.5938V48H580.344V27.5938C580.344 25.1354 580.135 23.1562 579.719 21.6562C579.302 20.1562 578.583 19.0208 577.562 18.25C576.562 17.4792 575.177 16.9688 573.406 16.7188C571.635 16.4479 569.385 16.3125 566.656 16.3125C562.49 16.3125 559.219 16.6562 556.844 17.3438C554.469 18.0312 552.792 19.1146 551.812 20.5938C550.833 22.0521 550.344 23.9583 550.344 26.3125V48H544.344ZM635.5 37.3125C635.5 40 635.094 42.1146 634.281 43.6562C633.49 45.1979 632.271 46.3229 630.625 47.0312C628.979 47.7396 626.875 48.1875 624.312 48.375C621.771 48.5833 618.74 48.6875 615.219 48.6875C611.198 48.6875 607.781 48.4792 604.969 48.0625C602.177 47.6667 599.917 46.8438 598.188 45.5938C596.479 44.3229 595.229 42.4271 594.438 39.9062C593.667 37.3854 593.281 34.0208 593.281 29.8125C593.281 25.7292 593.656 22.4583 594.406 20C595.177 17.5417 596.417 15.6875 598.125 14.4375C599.833 13.1875 602.073 12.3542 604.844 11.9375C607.635 11.5208 611.042 11.3125 615.062 11.3125C619.667 11.3125 623.479 11.6354 626.5 12.2812C629.521 12.9271 631.771 14.1562 633.25 15.9688C634.75 17.7812 635.5 20.4375 635.5 23.9375V31.6562H599.312C599.333 34.3229 599.521 36.4583 599.875 38.0625C600.229 39.6667 600.938 40.875 602 41.6875C603.062 42.5 604.646 43.0417 606.75 43.3125C608.875 43.5625 611.698 43.6875 615.219 43.6875C618.385 43.6875 620.938 43.625 622.875 43.5C624.833 43.375 626.312 43.1042 627.312 42.6875C628.333 42.25 629.021 41.6042 629.375 40.75C629.729 39.8958 629.906 38.75 629.906 37.3125H635.5ZM615.062 16.3125C611.667 16.3125 608.927 16.4375 606.844 16.6875C604.781 16.9375 603.208 17.4271 602.125 18.1562C601.042 18.8646 600.302 19.9271 599.906 21.3438C599.531 22.7604 599.333 24.625 599.312 26.9375H629.75V23.9375C629.75 22.4375 629.573 21.1979 629.219 20.2188C628.885 19.2188 628.219 18.4375 627.219 17.875C626.219 17.2917 624.74 16.8854 622.781 16.6562C620.844 16.4271 618.271 16.3125 615.062 16.3125ZM659.938 48C656.271 48 653.333 47.6354 651.125 46.9062C648.917 46.1562 647.312 44.8438 646.312 42.9688C645.333 41.0729 644.844 38.4167 644.844 35V2.15625H650.844V12H673V16.9375H650.844V35C650.844 37.3333 651.052 39.0729 651.469 40.2188C651.906 41.3646 652.771 42.1146 654.062 42.4688C655.375 42.8229 657.333 43 659.938 43C662.25 43 664.062 42.9271 665.375 42.7812C666.708 42.6354 667.688 42.25 668.312 41.625C668.938 40.9792 669.333 39.9271 669.5 38.4688C669.667 37.0104 669.75 34.9583 669.75 32.3125H675.062C675.062 35.7708 674.844 38.5417 674.406 40.625C673.99 42.7083 673.229 44.2812 672.125 45.3438C671.042 46.4062 669.51 47.1146 667.531 47.4688C665.573 47.8229 663.042 48 659.938 48ZM681.844 56L683.844 44H689.844L685.844 56H681.844ZM23.9375 139L0.34375 91H7.25L27.9375 133.906L47.4375 91H54.4375L73.9375 133.906L92.625 91H99.5312L77.9375 139H69.9375L50.9375 97.0312L31.9375 139H23.9375ZM106.062 139V91H112.062V107.781C112.958 106.573 114.062 105.562 115.375 104.75C116.708 103.938 118.479 103.333 120.688 102.938C122.917 102.521 125.833 102.312 129.438 102.312C134.146 102.312 137.854 102.771 140.562 103.688C143.292 104.604 145.229 106.24 146.375 108.594C147.521 110.948 148.094 114.281 148.094 118.594V139H142.062V118.594C142.062 116.135 141.854 114.156 141.438 112.656C141.021 111.156 140.302 110.021 139.281 109.25C138.281 108.479 136.896 107.969 135.125 107.719C133.354 107.448 131.104 107.312 128.375 107.312C124.208 107.312 120.938 107.656 118.562 108.344C116.188 109.031 114.51 110.115 113.531 111.594C112.552 113.052 112.062 114.958 112.062 117.312V139H106.062ZM175.062 139.688C170.75 139.688 167.188 139.458 164.375 139C161.583 138.562 159.5 137.583 158.125 136.062C156.771 134.542 156.094 132.177 156.094 128.969C156.094 125.698 156.729 123.302 158 121.781C159.292 120.24 161.323 119.24 164.094 118.781C166.885 118.323 170.542 118.094 175.062 118.094C178.729 118.094 181.802 118.177 184.281 118.344C186.76 118.51 188.979 118.802 190.938 119.219C190.896 116.448 190.708 114.271 190.375 112.688C190.042 111.083 189.417 109.896 188.5 109.125C187.583 108.354 186.24 107.865 184.469 107.656C182.719 107.427 180.385 107.312 177.469 107.312C174.135 107.312 171.521 107.385 169.625 107.531C167.75 107.677 166.385 107.938 165.531 108.312C164.677 108.688 164.135 109.229 163.906 109.938C163.698 110.646 163.594 111.562 163.594 112.688H157.594C157.594 110.438 157.896 108.625 158.5 107.25C159.125 105.875 160.177 104.833 161.656 104.125C163.135 103.417 165.156 102.938 167.719 102.688C170.302 102.438 173.552 102.312 177.469 102.312C181.677 102.312 185.062 102.583 187.625 103.125C190.208 103.667 192.167 104.646 193.5 106.062C194.854 107.458 195.76 109.417 196.219 111.938C196.698 114.458 196.938 117.708 196.938 121.688V139H190.938V136.531C190.229 137.281 189.25 137.885 188 138.344C186.75 138.802 185.083 139.135 183 139.344C180.938 139.573 178.292 139.688 175.062 139.688ZM175.062 134.812C178.625 134.812 181.469 134.771 183.594 134.688C185.719 134.604 187.302 134.375 188.344 134C189.406 133.625 190.104 133.021 190.438 132.188C190.771 131.354 190.938 130.188 190.938 128.688V123.156L175.062 122.969C172.25 122.927 169.979 122.969 168.25 123.094C166.542 123.198 165.24 123.448 164.344 123.844C163.448 124.219 162.844 124.823 162.531 125.656C162.24 126.469 162.094 127.573 162.094 128.969C162.094 130.323 162.24 131.396 162.531 132.188C162.844 132.979 163.448 133.562 164.344 133.938C165.24 134.312 166.542 134.552 168.25 134.656C169.979 134.76 172.25 134.812 175.062 134.812ZM221.469 139C217.802 139 214.865 138.635 212.656 137.906C210.448 137.156 208.844 135.844 207.844 133.969C206.865 132.073 206.375 129.417 206.375 126V93.1562H212.375V103H234.531V107.938H212.375V126C212.375 128.333 212.583 130.073 213 131.219C213.438 132.365 214.302 133.115 215.594 133.469C216.906 133.823 218.865 134 221.469 134C223.781 134 225.594 133.927 226.906 133.781C228.24 133.635 229.219 133.25 229.844 132.625C230.469 131.979 230.865 130.927 231.031 129.469C231.198 128.01 231.281 125.958 231.281 123.312H236.594C236.594 126.771 236.375 129.542 235.938 131.625C235.521 133.708 234.76 135.281 233.656 136.344C232.573 137.406 231.042 138.115 229.062 138.469C227.104 138.823 224.573 139 221.469 139ZM290.562 139V119L263.562 91H271.562L293.562 114.5L315.562 91H323.562L296.562 119V139H290.562ZM352.594 139.688C348.573 139.688 345.156 139.479 342.344 139.062C339.531 138.667 337.26 137.844 335.531 136.594C333.802 135.323 332.542 133.427 331.75 130.906C330.958 128.385 330.562 125.021 330.562 120.812C330.562 116.729 330.958 113.458 331.75 111C332.542 108.542 333.802 106.688 335.531 105.438C337.26 104.188 339.531 103.354 342.344 102.938C345.156 102.521 348.573 102.312 352.594 102.312C356.635 102.312 360.052 102.521 362.844 102.938C365.656 103.354 367.927 104.188 369.656 105.438C371.385 106.688 372.646 108.542 373.438 111C374.229 113.458 374.625 116.729 374.625 120.812C374.625 125.021 374.229 128.385 373.438 130.906C372.646 133.427 371.385 135.323 369.656 136.594C367.927 137.844 365.656 138.667 362.844 139.062C360.052 139.479 356.635 139.688 352.594 139.688ZM368.625 120.812C368.625 117.833 368.469 115.448 368.156 113.656C367.865 111.865 367.208 110.521 366.188 109.625C365.167 108.708 363.573 108.094 361.406 107.781C359.26 107.469 356.323 107.312 352.594 107.312C348.885 107.312 345.948 107.469 343.781 107.781C341.615 108.094 340.021 108.708 339 109.625C337.979 110.521 337.312 111.865 337 113.656C336.708 115.448 336.562 117.833 336.562 120.812C336.562 123.896 336.708 126.365 337 128.219C337.312 130.073 337.979 131.469 339 132.406C340.021 133.323 341.615 133.938 343.781 134.25C345.948 134.542 348.885 134.688 352.594 134.688C356.323 134.688 359.26 134.542 361.406 134.25C363.573 133.938 365.167 133.323 366.188 132.406C367.208 131.469 367.865 130.073 368.156 128.219C368.469 126.365 368.625 123.896 368.625 120.812ZM400.125 139.688C395.417 139.688 391.708 139.177 389 138.156C386.292 137.115 384.365 135.385 383.219 132.969C382.073 130.531 381.5 127.208 381.5 123V103H387.531V123C387.531 125.375 387.719 127.333 388.094 128.875C388.49 130.396 389.177 131.583 390.156 132.438C391.135 133.271 392.51 133.854 394.281 134.188C396.073 134.521 398.375 134.688 401.188 134.688C405.354 134.688 408.625 134.344 411 133.656C413.375 132.969 415.052 131.896 416.031 130.438C417.031 128.958 417.531 127.042 417.531 124.688V103H423.531V139H417.531V134.219C416.656 135.427 415.552 136.438 414.219 137.25C412.885 138.062 411.104 138.667 408.875 139.062C406.646 139.479 403.729 139.688 400.125 139.688ZM431.688 103L433.688 91H439.688L435.688 103H431.688ZM464.5 139L445.688 103H452.75L468.5 134.5H468.562L484.625 103H491.312L472.5 139H464.5ZM536.531 128.312C536.531 131 536.125 133.115 535.312 134.656C534.521 136.198 533.302 137.323 531.656 138.031C530.01 138.74 527.906 139.188 525.344 139.375C522.802 139.583 519.771 139.688 516.25 139.688C512.229 139.688 508.812 139.479 506 139.062C503.208 138.667 500.948 137.844 499.219 136.594C497.51 135.323 496.26 133.427 495.469 130.906C494.698 128.385 494.312 125.021 494.312 120.812C494.312 116.729 494.688 113.458 495.438 111C496.208 108.542 497.448 106.688 499.156 105.438C500.865 104.188 503.104 103.354 505.875 102.938C508.667 102.521 512.073 102.312 516.094 102.312C520.698 102.312 524.51 102.635 527.531 103.281C530.552 103.927 532.802 105.156 534.281 106.969C535.781 108.781 536.531 111.438 536.531 114.938V122.656H500.344C500.365 125.323 500.552 127.458 500.906 129.062C501.26 130.667 501.969 131.875 503.031 132.688C504.094 133.5 505.677 134.042 507.781 134.312C509.906 134.562 512.729 134.688 516.25 134.688C519.417 134.688 521.969 134.625 523.906 134.5C525.865 134.375 527.344 134.104 528.344 133.688C529.365 133.25 530.052 132.604 530.406 131.75C530.76 130.896 530.938 129.75 530.938 128.312H536.531ZM516.094 107.312C512.698 107.312 509.958 107.438 507.875 107.688C505.812 107.938 504.24 108.427 503.156 109.156C502.073 109.865 501.333 110.927 500.938 112.344C500.562 113.76 500.365 115.625 500.344 117.938H530.781V114.938C530.781 113.438 530.604 112.198 530.25 111.219C529.917 110.219 529.25 109.438 528.25 108.875C527.25 108.292 525.771 107.885 523.812 107.656C521.875 107.427 519.302 107.312 516.094 107.312ZM584.5 139L560.906 91H567.812L588.5 133.906L608 91H615L634.5 133.906L653.188 91H660.094L638.5 139H630.5L611.5 97.0312L592.5 139H584.5ZM677.5 139.688C673.188 139.688 669.625 139.458 666.812 139C664.021 138.562 661.938 137.583 660.562 136.062C659.208 134.542 658.531 132.177 658.531 128.969C658.531 125.698 659.167 123.302 660.438 121.781C661.729 120.24 663.76 119.24 666.531 118.781C669.323 118.323 672.979 118.094 677.5 118.094C681.167 118.094 684.24 118.177 686.719 118.344C689.198 118.51 691.417 118.802 693.375 119.219C693.333 116.448 693.146 114.271 692.812 112.688C692.479 111.083 691.854 109.896 690.938 109.125C690.021 108.354 688.677 107.865 686.906 107.656C685.156 107.427 682.823 107.312 679.906 107.312C676.573 107.312 673.958 107.385 672.062 107.531C670.188 107.677 668.823 107.938 667.969 108.312C667.115 108.688 666.573 109.229 666.344 109.938C666.135 110.646 666.031 111.562 666.031 112.688H660.031C660.031 110.438 660.333 108.625 660.938 107.25C661.562 105.875 662.615 104.833 664.094 104.125C665.573 103.417 667.594 102.938 670.156 102.688C672.74 102.438 675.99 102.312 679.906 102.312C684.115 102.312 687.5 102.583 690.062 103.125C692.646 103.667 694.604 104.646 695.938 106.062C697.292 107.458 698.198 109.417 698.656 111.938C699.135 114.458 699.375 117.708 699.375 121.688V139H693.375V136.531C692.667 137.281 691.688 137.885 690.438 138.344C689.188 138.802 687.521 139.135 685.438 139.344C683.375 139.573 680.729 139.688 677.5 139.688ZM677.5 134.812C681.062 134.812 683.906 134.771 686.031 134.688C688.156 134.604 689.74 134.375 690.781 134C691.844 133.625 692.542 133.021 692.875 132.188C693.208 131.354 693.375 130.188 693.375 128.688V123.156L677.5 122.969C674.688 122.927 672.417 122.969 670.688 123.094C668.979 123.198 667.677 123.448 666.781 123.844C665.885 124.219 665.281 124.823 664.969 125.656C664.677 126.469 664.531 127.573 664.531 128.969C664.531 130.323 664.677 131.396 664.969 132.188C665.281 132.979 665.885 133.562 666.781 133.938C667.677 134.312 668.979 134.552 670.688 134.656C672.417 134.76 674.688 134.812 677.5 134.812ZM707.25 139V105H713.25V139H707.25ZM707.25 97V91H713.25V97H707.25ZM737.906 139C734.24 139 731.302 138.635 729.094 137.906C726.885 137.156 725.281 135.844 724.281 133.969C723.302 132.073 722.812 129.417 722.812 126V93.1562H728.812V103H750.969V107.938H728.812V126C728.812 128.333 729.021 130.073 729.438 131.219C729.875 132.365 730.74 133.115 732.031 133.469C733.344 133.823 735.302 134 737.906 134C740.219 134 742.031 133.927 743.344 133.781C744.677 133.635 745.656 133.25 746.281 132.625C746.906 131.979 747.302 130.927 747.469 129.469C747.635 128.01 747.719 125.958 747.719 123.312H753.031C753.031 126.771 752.812 129.542 752.375 131.625C751.958 133.708 751.198 135.281 750.094 136.344C749.01 137.406 747.479 138.115 745.5 138.469C743.542 138.823 741.01 139 737.906 139ZM801.031 128.312C801.031 131 800.625 133.115 799.812 134.656C799.021 136.198 797.802 137.323 796.156 138.031C794.51 138.74 792.406 139.188 789.844 139.375C787.302 139.583 784.271 139.688 780.75 139.688C776.729 139.688 773.312 139.479 770.5 139.062C767.708 138.667 765.448 137.844 763.719 136.594C762.01 135.323 760.76 133.427 759.969 130.906C759.198 128.385 758.812 125.021 758.812 120.812C758.812 116.729 759.188 113.458 759.938 111C760.708 108.542 761.948 106.688 763.656 105.438C765.365 104.188 767.604 103.354 770.375 102.938C773.167 102.521 776.573 102.312 780.594 102.312C785.198 102.312 789.01 102.635 792.031 103.281C795.052 103.927 797.302 105.156 798.781 106.969C800.281 108.781 801.031 111.438 801.031 114.938V122.656H764.844C764.865 125.323 765.052 127.458 765.406 129.062C765.76 130.667 766.469 131.875 767.531 132.688C768.594 133.5 770.177 134.042 772.281 134.312C774.406 134.562 777.229 134.688 780.75 134.688C783.917 134.688 786.469 134.625 788.406 134.5C790.365 134.375 791.844 134.104 792.844 133.688C793.865 133.25 794.552 132.604 794.906 131.75C795.26 130.896 795.438 129.75 795.438 128.312H801.031ZM780.594 107.312C777.198 107.312 774.458 107.438 772.375 107.688C770.312 107.938 768.74 108.427 767.656 109.156C766.573 109.865 765.833 110.927 765.438 112.344C765.062 113.76 764.865 115.625 764.844 117.938H795.281V114.938C795.281 113.438 795.104 112.198 794.75 111.219C794.417 110.219 793.75 109.438 792.75 108.875C791.75 108.292 790.271 107.885 788.312 107.656C786.375 107.427 783.802 107.312 780.594 107.312ZM829.844 139.688C825.823 139.688 822.406 139.479 819.594 139.062C816.781 138.667 814.51 137.844 812.781 136.594C811.052 135.323 809.792 133.427 809 130.906C808.208 128.385 807.812 125.021 807.812 120.812C807.812 116.729 808.208 113.458 809 111C809.792 108.542 811.052 106.688 812.781 105.438C814.51 104.188 816.781 103.354 819.594 102.938C822.406 102.521 825.823 102.312 829.844 102.312C833.698 102.312 836.948 102.604 839.594 103.188C842.26 103.771 844.354 105.073 845.875 107.094V91H851.875V139H845.875V134.875C844.354 136.917 842.26 138.229 839.594 138.812C836.948 139.396 833.698 139.688 829.844 139.688ZM845.875 120.812C845.875 117.833 845.667 115.448 845.25 113.656C844.833 111.865 844.062 110.521 842.938 109.625C841.812 108.708 840.198 108.094 838.094 107.781C835.99 107.469 833.24 107.312 829.844 107.312C826.135 107.312 823.198 107.469 821.031 107.781C818.865 108.094 817.271 108.708 816.25 109.625C815.229 110.521 814.562 111.865 814.25 113.656C813.958 115.448 813.812 117.833 813.812 120.812C813.812 123.896 813.958 126.365 814.25 128.219C814.562 130.073 815.229 131.469 816.25 132.406C817.271 133.323 818.865 133.938 821.031 134.25C823.198 134.542 826.135 134.688 829.844 134.688C833.24 134.688 835.99 134.542 838.094 134.25C840.198 133.938 841.812 133.323 842.938 132.406C844.062 131.469 844.833 130.073 845.25 128.219C845.667 126.365 845.875 123.896 845.875 120.812ZM884.188 139V107.562H878.188V103H884.188V101.438C884.188 98.0208 884.74 95.3958 885.844 93.5625C886.969 91.7292 888.708 90.4688 891.062 89.7812C893.438 89.0938 896.49 88.75 900.219 88.75H907.188V93.625H900.188C897.208 93.625 895.01 93.8125 893.594 94.1875C892.177 94.5625 891.25 95.3125 890.812 96.4375C890.396 97.5417 890.188 99.2083 890.188 101.438V103H907.188V107.562H890.188V139H884.188ZM932.219 139.688C928.198 139.688 924.781 139.479 921.969 139.062C919.156 138.667 916.885 137.844 915.156 136.594C913.427 135.323 912.167 133.427 911.375 130.906C910.583 128.385 910.188 125.021 910.188 120.812C910.188 116.729 910.583 113.458 911.375 111C912.167 108.542 913.427 106.688 915.156 105.438C916.885 104.188 919.156 103.354 921.969 102.938C924.781 102.521 928.198 102.312 932.219 102.312C936.26 102.312 939.677 102.521 942.469 102.938C945.281 103.354 947.552 104.188 949.281 105.438C951.01 106.688 952.271 108.542 953.062 111C953.854 113.458 954.25 116.729 954.25 120.812C954.25 125.021 953.854 128.385 953.062 130.906C952.271 133.427 951.01 135.323 949.281 136.594C947.552 137.844 945.281 138.667 942.469 139.062C939.677 139.479 936.26 139.688 932.219 139.688ZM948.25 120.812C948.25 117.833 948.094 115.448 947.781 113.656C947.49 111.865 946.833 110.521 945.812 109.625C944.792 108.708 943.198 108.094 941.031 107.781C938.885 107.469 935.948 107.312 932.219 107.312C928.51 107.312 925.573 107.469 923.406 107.781C921.24 108.094 919.646 108.708 918.625 109.625C917.604 110.521 916.938 111.865 916.625 113.656C916.333 115.448 916.188 117.833 916.188 120.812C916.188 123.896 916.333 126.365 916.625 128.219C916.938 130.073 917.604 131.469 918.625 132.406C919.646 133.323 921.24 133.938 923.406 134.25C925.573 134.542 928.51 134.688 932.219 134.688C935.948 134.688 938.885 134.542 941.031 134.25C943.198 133.938 944.792 133.323 945.812 132.406C946.833 131.469 947.49 130.073 947.781 128.219C948.094 126.365 948.25 123.896 948.25 120.812ZM961.875 139V103H967.875V107.969C968.542 106.906 969.208 106.021 969.875 105.312C970.562 104.604 971.448 104.042 972.531 103.625C973.635 103.208 975.125 102.917 977 102.75C978.875 102.562 981.344 102.469 984.406 102.469V107.5C980.281 107.5 977.083 107.646 974.812 107.938C972.562 108.229 970.948 108.729 969.969 109.438C968.99 110.125 968.396 111.083 968.188 112.312C967.979 113.542 967.875 115.104 967.875 117V139H961.875Z" fill="white"/>
</svg>
